# xmcd
#
# Track frame offsets: 
#        150
#        19987
#        38327
#        60042
#
# Disc length: 1098 seconds
#
# Revision: 2
# Processed by: cddbd v1.5PL3 Copyright (c) Steve Scherf et al.
# Submitted via: ExactAudioCopy v0.95a4
#
DISCID=1f044804
DTITLE=Lenny Kravitz - If You Can't Say No and Live
DYEAR=1998
DGENRE=Rock
TTITLE0=If You Can't Say No (LP Edit)
TTITLE1=Live (Edit)
TTITLE2=Without You
TTITLE3=If You Can't Say No (Zero 7 Main Mix)
EXTD=
EXTT0=
EXTT1=
EXTT2=
EXTT3=
PLAYORDER=
